<svg width="56" height="23" viewBox="0 0 56 23" fill="none" xmlns="http://www.w3.org/2000/svg">
<path d="M30.1768 23C32.9382 23 35.1768 20.7614 35.1768 18V5C35.1768 2.23858 32.9382 0 30.1768 0H24.5347L19.8826 0C17.1212 0 14.8826 2.23858 14.8826 5L14.8826 12.1765V18C14.8826 20.7614 17.1212 23 19.8826 23L30.1768 23Z" fill="white"/>
<path d="M18.4504 0C23.1206 0 23.8272 6.72425 19.259 7.69499C15.1505 8.56805 15.1505 14.4319 19.259 15.305L28.3412 17.235C31.7636 17.9622 31.2343 23 27.7354 23L4.00011 23C1.79098 23 0.000114441 21.2091 0.000114441 19V4C0.000114441 1.79086 1.79098 0 4.00011 0L18.4504 0Z" fill="#0059FF"/>
</svg>
